<svg width="28" height="27" viewBox="0 0 28 27" fill="none" xmlns="http://www.w3.org/2000/svg">
<path fill-rule="evenodd" clip-rule="evenodd" d="M13.9973 0.510316C13.9973 0.228476 13.7688 0 13.4869 0H12.9787C12.736 0 12.5392 0.196762 12.5392 0.43948C12.5392 6.76881 7.40827 11.8998 1.07894 11.8998H0.565147C0.253025 11.8998 5.37839e-08 12.1528 4.00469e-08 12.4649L0 13.3813C-1.46683e-08 13.7173 0.272397 13.9897 0.608416 13.9897H13.9894V13.9923H16.8501V15.3625C16.8501 15.5171 16.7248 15.6423 16.5703 15.6423H13.9894L13.9894 19.0286V25.5131C13.9894 25.795 14.2179 26.0234 14.4998 26.0234H15.008C15.2507 26.0234 15.4475 25.8267 15.4475 25.584C15.4475 19.2546 20.5784 14.1237 26.9078 14.1237H27.4215C27.7337 14.1237 27.9867 13.8707 27.9867 13.5585V12.6222C27.9867 12.2817 27.7106 12.0056 27.3701 12.0056H13.9972V12.004H11.1366V10.6609C11.1366 10.5064 11.2619 10.3811 11.4164 10.3811H13.9972L13.9973 6.99486V0.510316Z" fill="#4EA971"/>
</svg>
