<svg width="517" height="430" viewBox="0 0 517 430" fill="none" xmlns="http://www.w3.org/2000/svg">
<g clip-path="url(#clip0_17109_175019)">
<path d="M252.026 401.305H21.8625C20.0594 401.302 18.3313 400.583 17.0574 399.307C15.7836 398.031 15.0681 396.302 15.0681 394.499V70.9652C15.0838 69.1726 15.8062 67.4585 17.0784 66.1953C18.3505 64.9321 20.0697 64.2218 21.8625 64.2188H252.026C253.831 64.2188 255.562 64.9358 256.839 66.2122C258.115 67.4886 258.832 69.2197 258.832 71.0248V394.499C258.832 396.304 258.115 398.035 256.839 399.311C255.562 400.588 253.831 401.305 252.026 401.305ZM21.8625 64.4571C20.1385 64.4603 18.4861 65.1474 17.2681 66.3675C16.0502 67.5877 15.3661 69.2412 15.3661 70.9652V394.499C15.3661 396.223 16.0502 397.876 17.2681 399.096C18.4861 400.317 20.1385 401.004 21.8625 401.007H252.026C253.751 401.004 255.405 400.317 256.624 399.097C257.844 397.877 258.531 396.224 258.534 394.499V70.9652C258.531 69.2402 257.844 67.5866 256.624 66.3668C255.405 65.147 253.751 64.4603 252.026 64.4571H21.8625Z" fill="#EBEBEB"/>
<path d="M509.867 401.305H279.692C277.888 401.302 276.159 400.584 274.883 399.308C273.607 398.032 272.889 396.303 272.886 394.499V70.9652C272.905 69.1715 273.63 67.4574 274.904 66.1945C276.178 64.9317 277.898 64.2218 279.692 64.2188H509.867C511.658 64.225 513.374 64.9366 514.644 66.1995C515.913 67.4623 516.634 69.1746 516.65 70.9652V394.499C516.65 396.3 515.936 398.027 514.665 399.303C513.393 400.579 511.668 401.298 509.867 401.305ZM279.692 64.4571C277.967 64.4603 276.313 65.147 275.093 66.3668C273.874 67.5866 273.187 69.2402 273.184 70.9652V394.499C273.187 396.224 273.874 397.877 275.093 399.097C276.313 400.317 277.967 401.004 279.692 401.007H509.867C511.592 401.004 513.246 400.317 514.466 399.097C515.686 397.877 516.372 396.224 516.376 394.499V70.9652C516.372 69.2402 515.686 67.5866 514.466 66.3668C513.246 65.147 511.592 64.4603 509.867 64.4571H279.692Z" fill="#EBEBEB"/>
<path d="M227.077 238.096L227.614 222.433L218.006 219.287C217.593 213.979 216.732 208.715 215.432 203.553L223.585 197.593L218.054 182.884L207.97 183.695C205.579 178.956 202.787 174.43 199.626 170.166L204.847 161.453L194.119 149.998L185.107 154.611C181.055 151.147 176.725 148.022 172.162 145.266L173.616 135.254L159.312 128.769L152.756 136.446C147.698 134.828 142.515 133.632 137.26 132.87L134.876 123.06L119.166 122.523L116.066 132.143C110.764 132.559 105.505 133.417 100.344 134.705L94.2886 126.6L79.5793 132.095L80.3899 142.179C75.6532 144.606 71.1277 147.425 66.8607 150.606L58.0876 145.266L46.5848 155.994L51.1978 165.053C47.7331 169.084 44.6224 173.407 41.9002 177.973L31.8993 176.472L25.3672 190.775L33.0913 197.319C31.462 202.373 30.2657 207.557 29.5153 212.814L19.586 215.306L19.0496 230.968L28.7048 234.115C29.1041 239.419 29.9616 244.68 31.2676 249.837L23.1143 255.796L28.6571 270.517L38.7414 269.707C41.1263 274.449 43.9181 278.976 47.0854 283.235L41.8525 291.949L52.5805 303.403L61.592 298.79C65.6336 302.253 69.9556 305.375 74.5133 308.123L73.0114 318.124L87.3154 324.62L93.9072 316.944C98.9647 318.576 104.147 319.792 109.403 320.579L111.787 330.389L127.498 330.926L130.597 321.307C135.903 320.885 141.166 320.028 146.331 318.744L152.291 326.849L167.001 321.354L166.238 311.27C170.966 308.828 175.49 306.01 179.767 302.843L188.433 308.064L199.936 297.336L195.322 288.277C198.788 284.246 201.899 279.923 204.62 275.356L214.621 276.858L221.153 262.555L213.429 255.999C215.086 250.949 216.302 245.764 217.065 240.504L227.077 238.096ZM121.24 288.838C108.948 288.422 97.0551 284.371 87.066 277.196C77.077 270.021 69.4404 260.045 65.1223 248.529C60.8042 237.013 59.9985 224.476 62.8072 212.502C65.6159 200.529 71.9127 189.657 80.9013 181.263C89.8898 172.868 101.166 167.328 113.304 165.343C125.442 163.358 137.895 165.017 149.09 170.111C160.284 175.205 169.717 183.504 176.194 193.959C182.671 204.414 185.901 216.555 185.477 228.846C184.911 245.319 177.826 260.892 165.78 272.142C153.734 283.392 137.713 289.397 121.24 288.838Z" fill="#EBEBEB"/>
<path d="M495.194 186.313L499.139 182.63L497.578 179.519C498.769 178.125 499.842 176.634 500.784 175.061L504.241 175.574L506.47 170.639L503.824 168.386C504.394 166.641 504.813 164.851 505.076 163.034L508.473 162.188L508.64 156.776L505.326 155.703C505.18 153.871 504.885 152.053 504.444 150.268L507.245 148.182L505.338 143.116L501.869 143.39C501.033 141.756 500.064 140.194 498.973 138.718L500.773 135.738L497.065 131.78L493.966 133.366C492.57 132.177 491.079 131.105 489.508 130.159L490.009 126.703L485.086 124.45L482.821 127.108C481.073 126.564 479.283 126.165 477.469 125.916L476.623 122.531L471.211 122.328L470.126 125.666C468.301 125.805 466.49 126.1 464.715 126.548L462.64 123.747L457.563 125.642L457.849 129.122C456.21 129.951 454.647 130.92 453.176 132.019L450.172 130.219L446.215 133.902L447.752 136.942C446.553 138.332 445.476 139.823 444.534 141.4L441.089 140.887L438.848 145.822L441.506 148.087C440.955 149.829 440.556 151.616 440.314 153.427L436.905 154.273L436.738 159.685L440.064 160.757C440.2 162.59 440.491 164.409 440.934 166.193L438.121 168.267L440.028 173.333L443.509 173.07C444.345 174.704 445.314 176.267 446.405 177.743L444.605 180.723L448.313 184.68L451.412 183.095C452.805 184.287 454.296 185.36 455.87 186.301L455.357 189.746L460.292 191.999L462.557 189.353C464.307 189.891 466.096 190.29 467.909 190.545L468.755 193.93L474.167 194.133L475.252 190.795C477.078 190.656 478.888 190.361 480.663 189.913L482.738 192.714L487.815 190.819L487.541 187.338C489.175 186.509 490.735 185.54 492.202 184.442L495.194 186.313ZM467.039 163.511C465.998 162.395 465.311 160.996 465.066 159.491C464.82 157.985 465.027 156.44 465.659 155.052C466.291 153.664 467.321 152.494 468.619 151.691C469.916 150.888 471.422 150.488 472.947 150.542C474.472 150.595 475.946 151.099 477.184 151.991C478.422 152.883 479.368 154.121 479.902 155.551C480.436 156.98 480.534 158.535 480.183 160.02C479.833 161.505 479.05 162.852 477.934 163.892C477.193 164.591 476.321 165.135 475.368 165.495C474.415 165.854 473.401 166.021 472.383 165.985C471.365 165.95 470.365 165.713 469.439 165.288C468.514 164.863 467.682 164.259 466.991 163.511H467.039Z" fill="#EBEBEB"/>
<path d="M346.438 70.2048L334.112 61.6824C332.904 57.2447 331.242 52.943 329.154 48.8454L332.312 36.4492L314.432 17.3068L301.845 19.6073C297.896 17.2415 293.714 15.2884 289.365 13.7787L281.712 0.893949L255.488 0L246.977 12.3246C242.544 13.5319 238.247 15.1893 234.151 17.2711L221.754 14.1125L202.611 31.9914L204.911 44.5544C202.548 48.5111 200.598 52.7011 199.094 57.0577L186.209 64.71L185.315 90.9325L197.652 99.4428C198.84 103.905 200.498 108.228 202.599 112.34L199.404 124.628L217.284 143.771L229.788 141.482C233.767 143.851 237.977 145.808 242.352 147.323L249.993 160.184L276.217 161.09L284.716 148.765C289.188 147.557 293.526 145.896 297.661 143.807L309.986 146.953L329.142 129.074L326.841 116.511C329.212 112.554 331.162 108.359 332.658 103.996L345.544 96.3438L346.438 70.2048ZM264.845 110.003C259.024 109.804 253.392 107.884 248.661 104.484C243.931 101.085 240.315 96.3594 238.271 90.9052C236.226 85.451 235.845 79.5131 237.175 73.8422C238.505 68.1714 241.487 63.0223 245.744 59.0459C250.001 55.0696 255.341 52.4446 261.089 51.5028C266.838 50.561 272.736 51.3448 278.039 53.755C283.342 56.1652 287.811 60.0936 290.882 65.0434C293.952 69.9933 295.486 75.7424 295.289 81.5639C295.015 89.3714 291.655 96.7513 285.944 102.083C280.234 107.415 272.642 110.264 264.833 110.003H264.845Z" fill="#EBEBEB"/>
<path d="M379.034 272.818H378.95L358.305 272.114C357.886 272.107 357.477 271.993 357.114 271.785C356.752 271.577 356.448 271.28 356.231 270.922L350.664 261.565C347.664 260.468 344.761 259.12 341.986 257.537L333.082 259.074C332.667 259.15 332.24 259.12 331.84 258.987C331.44 258.853 331.08 258.621 330.793 258.311L316.692 243.221C316.396 242.909 316.186 242.525 316.081 242.108C315.977 241.69 315.982 241.253 316.096 240.837L318.349 232.005C316.953 229.143 315.812 226.164 314.94 223.101L305.964 216.903C305.616 216.664 305.334 216.341 305.144 215.964C304.955 215.587 304.863 215.168 304.879 214.746L305.582 194.101C305.596 193.684 305.712 193.277 305.92 192.916C306.128 192.554 306.421 192.249 306.774 192.027L316.156 186.461C317.237 183.467 318.582 180.576 320.173 177.819L318.528 168.844C318.451 168.427 318.48 167.998 318.614 167.595C318.747 167.193 318.98 166.831 319.29 166.543L334.381 152.454C334.693 152.157 335.076 151.945 335.494 151.839C335.911 151.732 336.349 151.735 336.765 151.846L345.634 154.111C348.489 152.715 351.46 151.57 354.514 150.69L360.712 141.715C360.943 141.358 361.264 141.07 361.644 140.879C362.023 140.688 362.446 140.602 362.87 140.63L383.504 141.345C383.923 141.354 384.334 141.468 384.698 141.676C385.062 141.884 385.369 142.18 385.59 142.537L391.156 151.906C394.135 153 397.015 154.347 399.762 155.935L408.774 154.278C409.189 154.201 409.616 154.23 410.017 154.364C410.417 154.497 410.777 154.73 411.063 155.041L425.164 170.131C425.458 170.445 425.667 170.828 425.771 171.245C425.875 171.663 425.872 172.1 425.76 172.515L423.495 181.371C424.892 184.227 426.04 187.198 426.928 190.251L435.892 196.449C436.24 196.688 436.522 197.011 436.712 197.388C436.901 197.766 436.992 198.185 436.977 198.607L436.273 219.239C436.259 219.658 436.143 220.066 435.936 220.43C435.728 220.793 435.435 221.101 435.081 221.325L425.7 226.892C424.611 229.878 423.267 232.765 421.683 235.521L423.328 244.509C423.405 244.924 423.376 245.351 423.242 245.751C423.109 246.152 422.876 246.512 422.565 246.797L407.379 260.898C407.067 261.194 406.683 261.404 406.265 261.509C405.848 261.613 405.41 261.608 404.995 261.494L396.174 259.241C393.3 260.631 390.314 261.776 387.246 262.662L381.108 271.626C380.886 271.979 380.582 272.273 380.22 272.481C379.858 272.689 379.451 272.805 379.034 272.818ZM359.854 267.132L377.734 267.74L383.694 259.17C384.024 258.669 384.531 258.312 385.113 258.168C388.467 257.251 391.721 256.001 394.827 254.438C395.369 254.177 395.985 254.113 396.568 254.259L404.912 256.392L418.024 244.175L416.522 235.557C416.406 234.955 416.516 234.331 416.832 233.805C418.602 230.853 420.06 227.726 421.183 224.472C421.372 223.882 421.771 223.382 422.303 223.065L431.279 217.749L431.887 199.87L423.304 193.91C422.852 193.602 422.513 193.154 422.339 192.635C422.339 192.575 422.339 192.504 422.339 192.432C421.42 189.138 420.175 185.943 418.62 182.897C418.344 182.351 418.276 181.724 418.429 181.133L420.575 172.694L408.357 159.582L399.786 161.155C399.188 161.264 398.57 161.154 398.046 160.846C395.089 159.072 391.957 157.606 388.701 156.471C388.514 156.411 388.334 156.331 388.164 156.233C387.821 156.018 387.534 155.724 387.33 155.375L381.954 146.375L364.074 145.755L358.114 154.349C357.758 154.853 357.234 155.213 356.636 155.363C353.316 156.27 350.097 157.512 347.028 159.07C346.487 159.346 345.864 159.413 345.276 159.26L336.837 157.115L323.725 169.332L325.298 177.879C325.391 178.418 325.312 178.972 325.072 179.464L324.952 179.666C323.18 182.629 321.721 185.769 320.602 189.035C320.404 189.595 320.016 190.068 319.505 190.37L310.529 195.698L309.921 213.578L318.516 219.537C319.006 219.873 319.361 220.371 319.517 220.944C320.41 224.291 321.653 227.535 323.224 230.622C323.309 230.798 323.377 230.982 323.427 231.171C323.517 231.563 323.517 231.97 323.427 232.363L321.281 240.706L333.499 253.818L342.01 252.256C342.605 252.148 343.219 252.258 343.738 252.566C346.718 254.337 349.869 255.802 353.143 256.941C353.734 257.116 354.234 257.513 354.538 258.049L359.854 267.132ZM370.904 244.521C370.463 244.521 370.022 244.521 369.581 244.521C359.672 244.346 350.233 240.265 343.318 233.166C336.404 226.066 332.573 216.523 332.66 206.613C332.747 196.704 336.745 187.229 343.784 180.253C350.823 173.276 360.332 169.362 370.243 169.362C380.153 169.362 389.662 173.276 396.701 180.253C403.74 187.229 407.738 196.704 407.825 206.613C407.912 216.523 404.081 226.066 397.167 233.166C390.252 240.265 380.813 244.346 370.904 244.521ZM370.904 174.088C362.245 174.237 353.995 177.801 347.951 184.004C341.907 190.206 338.557 198.545 338.632 207.205C338.707 215.865 342.199 224.144 348.349 230.242C354.5 236.339 362.81 239.76 371.47 239.76C380.131 239.76 388.441 236.339 394.591 230.242C400.741 224.144 404.234 215.865 404.309 207.205C404.383 198.545 401.034 190.206 394.99 184.004C388.945 177.801 380.696 174.237 372.036 174.088H370.904Z" fill="#EBEBEB"/>
<path d="M426.582 124.216L418.024 121.927L415.735 113.369L419.085 110.031L422.613 117.338L429.932 120.878L426.582 124.216Z" fill="#E0E0E0"/>
<path d="M427.107 118.488C427.477 118.118 427.771 117.678 427.971 117.195C428.171 116.711 428.275 116.192 428.275 115.669C428.275 115.145 428.171 114.627 427.971 114.143C427.771 113.66 427.477 113.22 427.107 112.85C426.737 112.48 426.297 112.186 425.814 111.986C425.33 111.785 424.811 111.682 424.288 111.682C423.764 111.682 423.246 111.785 422.762 111.986C422.278 112.186 421.839 112.48 421.469 112.85L425.724 106.461L431.422 109.346L432.674 115.305L427.107 118.488Z" fill="#E0E0E0"/>
<path d="M418.406 110.715L424.675 104.445L433.21 106.722L435.511 115.268L429.241 121.538L420.694 119.238L418.406 110.715ZM429.789 115.841C430.347 115.282 430.727 114.57 430.881 113.796C431.035 113.021 430.955 112.219 430.653 111.489C430.351 110.76 429.839 110.137 429.182 109.698C428.526 109.259 427.754 109.025 426.964 109.025C426.174 109.025 425.403 109.259 424.746 109.698C424.089 110.137 423.578 110.76 423.275 111.489C422.973 112.219 422.894 113.021 423.047 113.796C423.201 114.57 423.581 115.282 424.139 115.841C424.894 116.581 425.911 116.994 426.969 116.99C428.027 116.985 429.04 116.564 429.789 115.817V115.841Z" fill="#F0F0F0"/>
<path d="M77.0641 352.328L81.6533 351.088L82.881 346.499L81.093 344.711L79.1978 348.633L75.2642 350.528L77.0641 352.328Z" fill="#E0E0E0"/>
<path d="M76.8018 349.253C76.4431 348.844 76.2536 348.313 76.2716 347.769C76.2897 347.225 76.5139 346.708 76.8989 346.323C77.2839 345.938 77.8008 345.714 78.345 345.696C78.8891 345.678 79.4198 345.867 79.8294 346.226L77.5527 342.805L74.4178 344.33L73.7502 347.549L76.8018 349.253Z" fill="#E0E0E0"/>
<path d="M81.451 345.072L78.0895 341.711L73.5003 342.903L72.3083 347.492L75.6102 350.889L80.1994 349.697L81.451 345.072ZM75.3479 347.826C75.127 347.632 74.948 347.395 74.8223 347.13C74.6966 346.865 74.6267 346.576 74.6169 346.283C74.6072 345.989 74.6578 345.697 74.7657 345.423C74.8736 345.15 75.0365 344.902 75.2442 344.694C75.4519 344.487 75.7 344.324 75.9732 344.216C76.2464 344.108 76.5388 344.057 76.8324 344.067C77.126 344.077 77.4144 344.147 77.6799 344.273C77.9453 344.398 78.1821 344.577 78.3756 344.798C78.7343 345.208 78.9238 345.738 78.9058 346.283C78.8877 346.827 78.6635 347.344 78.2785 347.729C77.8935 348.114 77.3766 348.338 76.8324 348.356C76.2882 348.374 75.7576 348.184 75.3479 347.826Z" fill="#F0F0F0"/>
<path d="M60.5432 100.767L64.3576 104.582C64.8347 105.05 65.4768 105.313 66.1456 105.313C66.8145 105.313 67.4566 105.05 67.9336 104.582C68.3996 104.103 68.6604 103.462 68.6604 102.794C68.6604 102.126 68.3996 101.484 67.9336 101.006L64.1312 97.2033C63.6526 96.7373 63.0111 96.4766 62.3432 96.4766C61.6752 96.4766 61.0337 96.7373 60.5552 97.2033C60.0883 97.6783 59.8257 98.3169 59.8235 98.9829C59.8213 99.6488 60.0796 100.289 60.5432 100.767Z" fill="#F0F0F0"/>
<path d="M57.8612 91.2877C58.8566 91.0109 59.9111 91.0308 60.8953 91.3449C61.8795 91.6591 62.7505 92.2538 63.4014 93.056C64.0524 93.8583 64.4548 94.8331 64.5595 95.8609C64.6641 96.8887 64.4663 97.9246 63.9903 98.8416C63.5144 99.7585 62.7811 100.517 61.8804 101.023C60.9796 101.529 59.9508 101.76 58.9201 101.69C57.8894 101.619 56.9017 101.249 56.0783 100.625C55.255 100.001 54.6318 99.1505 54.2852 98.1773C54.0652 97.4902 53.9833 96.7663 54.0442 96.0474C54.105 95.3286 54.3074 94.6288 54.6398 93.9885C54.9722 93.3481 55.4279 92.7798 55.9808 92.3163C56.5336 91.8528 57.1727 91.5032 57.8612 91.2877Z" fill="#E0E0E0"/>
<path d="M53.713 97.5413L54.2651 99.0781L65.5955 95.008L65.0434 93.4712L53.713 97.5413Z" fill="#F0F0F0"/>
<path d="M231.467 400.611C359.109 400.611 462.584 394.57 462.584 387.118C462.584 379.666 359.109 373.625 231.467 373.625C103.825 373.625 0.350098 379.666 0.350098 387.118C0.350098 394.57 103.825 400.611 231.467 400.611Z" fill="#F5F5F5"/>
<path d="M72.8921 142.444C71.7001 137.188 72.2245 132.778 74.4893 129.178C76.7541 125.578 80.4493 123.218 85.7061 122.026C90.9628 120.834 95.5043 121.311 99.0565 123.528C102.609 125.745 105.016 129.488 106.208 134.613C107.05 137.777 107.119 141.096 106.411 144.292C105.718 146.946 104.254 149.335 102.203 151.158C99.7678 153.208 96.8447 154.596 93.7163 155.187C90.6496 156.001 87.4385 156.111 84.3233 155.508C81.6154 154.85 79.1662 153.398 77.2905 151.337C75.0496 148.823 73.5299 145.751 72.8921 142.444ZM82.8333 140.227C83.5724 143.47 84.7048 145.663 86.2305 146.807C87.0181 147.332 87.9038 147.693 88.8343 147.867C89.7648 148.041 90.7208 148.025 91.645 147.82C92.5692 147.615 93.4424 147.226 94.2122 146.675C94.9819 146.124 95.6323 145.423 96.1241 144.614C96.9824 142.957 96.9943 140.323 96.1837 136.735C95.4924 133.707 94.3759 131.633 92.8342 130.513C92.058 129.956 91.1668 129.58 90.2261 129.413C89.2854 129.246 88.3193 129.292 87.3987 129.547C86.4773 129.72 85.6071 130.099 84.8535 130.657C84.0999 131.214 83.4825 131.935 83.0479 132.766C82.1658 134.518 82.0824 136.902 82.8333 140.227Z" fill="#263238"/>
<path d="M110.881 138.532C110.458 136.908 110.382 135.212 110.66 133.556C110.937 131.901 111.561 130.322 112.49 128.925C113.533 127.44 114.858 126.175 116.39 125.203C117.922 124.232 119.631 123.572 121.419 123.263C126.083 122.206 129.914 122.758 132.909 124.92C135.431 126.874 137.145 129.688 137.725 132.825C138.305 135.961 137.711 139.202 136.056 141.929C134.197 144.766 131.169 146.657 126.973 147.603C123.741 148.507 120.292 148.228 117.247 146.816C115.618 146.02 114.196 144.858 113.092 143.421C111.987 141.984 111.231 140.31 110.881 138.532ZM119.833 136.47C120.074 138.136 120.888 139.665 122.134 140.797C122.628 141.171 123.197 141.432 123.802 141.564C124.408 141.696 125.034 141.694 125.639 141.559C126.243 141.424 126.811 141.159 127.303 140.782C127.795 140.406 128.199 139.927 128.487 139.378C129.111 137.777 129.17 136.011 128.654 134.372C128.403 132.745 127.599 131.255 126.377 130.152C125.903 129.768 125.347 129.498 124.751 129.364C124.156 129.229 123.538 129.234 122.944 129.378C122.326 129.506 121.745 129.773 121.245 130.159C120.745 130.546 120.34 131.04 120.06 131.607C119.418 133.151 119.338 134.872 119.833 136.47Z" fill="#263238"/>
<path d="M146.629 151.894L139.322 119.711L147.666 117.804L148.453 121.249C149.041 119.875 149.896 118.631 150.968 117.589C152.144 116.591 153.548 115.899 155.056 115.575C156.45 115.196 157.917 115.174 159.321 115.511C160.725 115.849 162.021 116.535 163.091 117.506C165.446 119.708 167.045 122.6 167.656 125.766C168.538 129.64 168.276 132.811 166.893 135.302C166.235 136.493 165.326 137.527 164.229 138.332C163.132 139.136 161.873 139.693 160.54 139.963C159.255 140.267 157.923 140.32 156.618 140.117C155.366 139.898 154.173 139.424 153.113 138.723L155.641 149.844L146.629 151.894ZM150.932 129.414C151.151 130.902 151.895 132.264 153.03 133.252C153.485 133.6 154.013 133.841 154.575 133.957C155.136 134.072 155.716 134.06 156.272 133.919C156.788 133.816 157.273 133.593 157.687 133.267C158.101 132.942 158.433 132.525 158.656 132.048C159.163 130.556 159.163 128.939 158.656 127.447C158.438 125.951 157.72 124.572 156.618 123.537C156.209 123.198 155.728 122.957 155.211 122.833C154.695 122.709 154.156 122.705 153.638 122.822C153.09 122.94 152.576 123.181 152.135 123.525C151.693 123.87 151.335 124.31 151.087 124.813C150.504 126.282 150.449 127.908 150.932 129.414Z" fill="#263238"/>
<path d="M171.482 130.092L180.16 127.243C180.621 128.082 181.34 128.751 182.21 129.15C183.146 129.421 184.137 129.443 185.084 129.213C186.032 128.983 186.902 128.509 187.61 127.839C187.808 127.629 187.951 127.373 188.028 127.095C188.105 126.817 188.113 126.524 188.051 126.242C187.979 125.919 187.813 125.625 187.573 125.398C187.333 125.171 187.03 125.02 186.704 124.966C185.357 124.819 183.998 124.819 182.651 124.966C180.391 125.159 178.118 125.159 175.857 124.966C174.533 124.774 173.293 124.208 172.281 123.333C171.201 122.399 170.456 121.139 170.157 119.743C169.858 118.347 170.022 116.892 170.624 115.598C171.319 114.213 172.399 113.058 173.735 112.272C175.637 111.192 177.702 110.431 179.85 110.019C181.9 109.463 184.02 109.206 186.144 109.256C187.477 109.342 188.77 109.751 189.91 110.448C191.125 111.268 192.157 112.331 192.938 113.571L184.594 116.325C184.282 115.704 183.764 115.211 183.128 114.93C182.259 114.619 181.316 114.577 180.422 114.811C179.633 114.921 178.9 115.285 178.336 115.848C178.157 116.04 178.027 116.273 177.959 116.526C177.89 116.78 177.885 117.046 177.943 117.302C178.007 117.584 178.156 117.84 178.369 118.035C178.581 118.231 178.849 118.358 179.135 118.399C180.467 118.553 181.815 118.525 183.14 118.315C185.438 117.982 187.771 117.95 190.077 118.22C191.529 118.425 192.888 119.051 193.987 120.02C194.981 120.921 195.672 122.108 195.966 123.417C196.271 124.821 196.159 126.283 195.644 127.625C195.014 129.212 193.916 130.571 192.497 131.522C190.406 132.889 188.064 133.825 185.607 134.276C181.356 135.245 178.177 135.329 176.071 134.526C174.02 133.707 172.372 132.114 171.482 130.092Z" fill="#263238"/>
<path d="M200.591 100.633H210.377V108.142L208.577 123.245H202.522L200.591 108.166V100.633ZM201.068 125.521H210.198V133.603H201.068V125.521Z" fill="#263238"/>
<path d="M122.909 203.13H122.694C117.33 201.044 114.124 199.018 112.455 196.574C111.149 196.822 109.797 196.638 108.605 196.05C107.208 195.366 106.049 194.278 105.279 192.927C104.874 193.237 104.398 193.441 103.893 193.518C103.389 193.595 102.873 193.543 102.394 193.368C100.925 192.818 99.6718 191.811 98.8184 190.495C98.2846 190.893 97.621 191.076 96.9589 191.008C93.3829 190.722 88.6149 183.665 88.2692 176.156C88.2657 175.997 88.323 175.843 88.4295 175.726C88.5359 175.608 88.6833 175.536 88.8414 175.524C88.9196 175.521 88.9978 175.533 89.0713 175.56C89.1449 175.587 89.2123 175.628 89.2699 175.682C89.3275 175.735 89.374 175.799 89.4068 175.87C89.4397 175.941 89.4581 176.018 89.4612 176.096C89.795 183.248 94.3603 189.601 97.0662 189.816C97.263 189.838 97.4623 189.821 97.6526 189.766C97.8428 189.71 98.0203 189.618 98.1747 189.494C97.2425 187.795 96.657 185.927 96.4524 183.999C96.2478 182.072 96.428 180.123 96.9827 178.266C98.0078 174.69 98.9138 173.283 100.01 173.498C102.061 174.01 101.786 181.842 100.702 186.955C100.537 187.877 100.197 188.759 99.7005 189.554C100.403 190.732 101.464 191.655 102.728 192.188C103.065 192.316 103.432 192.345 103.785 192.271C104.137 192.197 104.462 192.023 104.719 191.771C103.789 189.47 103.527 186.323 104.862 182.318C106.531 177.038 107.246 176.895 107.615 176.799C107.754 176.77 107.899 176.779 108.033 176.825C108.167 176.872 108.287 176.953 108.378 177.062C109.487 178.313 108.164 186.514 106.781 190.567C106.619 191.054 106.395 191.519 106.113 191.949C106.753 193.239 107.795 194.285 109.082 194.929C109.925 195.34 110.864 195.517 111.799 195.442C111.692 195.215 111.597 194.989 111.501 194.751C110.56 192.188 111.024 189.244 112.92 185.715C114.171 183.391 115.196 182.294 116.15 182.294C116.403 182.298 116.65 182.374 116.861 182.513C117.073 182.653 117.239 182.85 117.342 183.081C118.379 185 117.628 191.33 115.578 194.476C115.098 195.198 114.43 195.775 113.647 196.145C115.244 198.243 118.284 200.091 123.183 201.974C123.256 202 123.324 202.041 123.381 202.094C123.438 202.147 123.485 202.211 123.517 202.282C123.549 202.353 123.567 202.43 123.569 202.508C123.571 202.586 123.557 202.664 123.529 202.737C123.482 202.861 123.397 202.967 123.285 203.038C123.173 203.109 123.041 203.141 122.909 203.13ZM116.138 183.498C116.138 183.498 115.459 183.498 113.957 186.299C112.228 189.494 111.787 192.128 112.61 194.345C112.71 194.62 112.829 194.887 112.967 195.144C113.613 194.877 114.162 194.42 114.541 193.833C116.21 191.282 117.008 186.037 116.388 183.987C116.305 183.57 116.138 183.498 116.138 183.498ZM107.58 178.48C106.934 179.837 106.4 181.244 105.982 182.688C105.068 185.189 104.911 187.905 105.529 190.495L105.637 190.185C106.888 186.407 107.556 182.46 107.615 178.48H107.58ZM99.7362 174.725C99.5336 174.904 98.9495 175.655 98.127 178.564C97.1543 181.828 97.4611 185.34 98.9853 188.385C99.2299 187.853 99.4099 187.292 99.5217 186.717C100.797 180.864 100.44 175.572 99.772 174.725H99.7362Z" fill="#263238"/>
<path d="M168.229 265.609C166.323 265.628 164.447 265.138 162.793 264.191C162.657 264.109 162.558 263.977 162.518 263.823C162.478 263.67 162.5 263.506 162.579 263.368C162.618 263.301 162.67 263.242 162.732 263.196C162.795 263.149 162.866 263.115 162.941 263.096C163.017 263.077 163.095 263.074 163.172 263.086C163.249 263.098 163.323 263.125 163.389 263.166C167.645 265.657 173.14 263.917 174.272 262.093C174.354 261.979 174.412 261.849 174.443 261.712C174.473 261.575 174.476 261.433 174.451 261.294C172.275 261.419 170.12 260.806 168.336 259.554C165.296 257.659 165.058 257.087 165.082 256.634C165.088 256.503 165.128 256.377 165.2 256.268C165.271 256.159 165.37 256.071 165.487 256.014C166.679 255.418 172.055 257.885 174.296 259.363C174.565 259.542 174.813 259.75 175.035 259.983C175.916 259.783 176.709 259.307 177.3 258.624C177.632 258.234 177.873 257.773 178.003 257.277H177.765C175.857 257.468 173.95 256.646 171.912 254.762C170.505 253.475 169.969 252.581 170.148 251.878C170.202 251.68 170.311 251.502 170.464 251.365C170.616 251.227 170.804 251.137 171.006 251.103C172.651 250.686 176.728 252.426 178.385 254.25C178.754 254.646 179.017 255.13 179.147 255.656C180.709 254.929 182.354 253.272 184.297 250.566C184.342 250.502 184.399 250.447 184.466 250.405C184.532 250.363 184.607 250.334 184.684 250.321C184.762 250.308 184.841 250.31 184.918 250.328C184.995 250.345 185.067 250.378 185.131 250.423C185.259 250.517 185.345 250.656 185.372 250.812C185.399 250.967 185.364 251.127 185.274 251.258C183.021 254.405 181.138 256.193 179.255 256.92C179.157 257.801 178.796 258.632 178.218 259.304C177.531 260.102 176.629 260.685 175.619 260.984C175.676 261.269 175.675 261.562 175.618 261.846C175.561 262.131 175.448 262.401 175.285 262.641C174.284 264.346 171.399 265.609 168.229 265.609ZM167.168 257.337C167.573 257.635 168.145 258.028 168.968 258.529C170.249 259.393 171.722 259.933 173.259 260.102C171.34 258.952 169.297 258.024 167.168 257.337ZM171.328 252.271C171.67 252.916 172.146 253.48 172.723 253.928C174.487 255.561 176.096 256.312 177.645 256.121H178.027C177.942 255.751 177.761 255.41 177.502 255.132C175.834 253.248 172.162 252.08 171.328 252.271Z" fill="#263238"/>
<path d="M413.451 336.458C410.67 335.732 407.716 334.797 404.771 333.716C394.432 329.929 386.809 325.373 382.092 320.178C377.393 314.97 374.189 308.589 372.818 301.711L372.789 301.57C371.607 296.415 371.651 289.399 372.914 280.825C374.522 270.546 377.176 260.459 380.834 250.72C392.261 219.427 403.867 207.909 411.585 203.761C420.595 198.928 431.436 198.271 444.702 201.754C447.425 202.467 450.277 203.367 453.179 204.425C461.497 207.525 467.879 210.921 472.1 214.635C475.776 217.716 478.79 221.51 480.959 225.787C482.835 229.632 484.112 233.74 484.747 237.97C485.313 242.654 485.294 247.391 484.692 252.071C483.426 263.454 480.781 274.642 476.817 285.387C467.942 309.705 457.736 325.901 446.495 333.53C438.157 339.175 427.331 340.202 413.429 336.502L413.451 336.458Z" fill="#263238"/>
<path d="M458.029 244.937L459.175 240.564L456.665 239.069C456.886 237.552 456.979 236.02 456.942 234.488L459.651 233.315L459.027 228.824L456.137 228.416C455.77 226.935 455.28 225.488 454.67 224.089L456.689 221.967L454.393 218.063L451.564 218.794C450.65 217.562 449.635 216.41 448.53 215.347L449.572 212.625L445.961 209.891L443.635 211.639C442.317 210.857 440.936 210.186 439.506 209.632L439.442 206.721L435.058 205.573L433.577 208.074C432.06 207.857 430.528 207.764 428.996 207.797L427.811 205.086L423.323 205.698L422.915 208.587C421.434 208.955 419.987 209.446 418.588 210.055L416.479 208.027L412.567 210.309L413.295 213.149C412.061 214.062 410.91 215.082 409.857 216.198L407.14 215.132L404.395 218.741L406.155 221.068C405.361 222.385 404.689 223.771 404.144 225.209L401.22 225.282L400.076 229.643L402.586 231.138C402.362 232.659 402.269 234.195 402.307 235.731L399.601 236.892L400.225 241.383L403.114 241.791C403.473 243.274 403.964 244.722 404.581 246.118L402.551 248.238L404.847 252.141L407.673 251.423C408.588 252.65 409.604 253.799 410.71 254.858L409.656 257.577L413.267 260.311L415.602 258.577C416.925 259.357 418.311 260.026 419.745 260.575L419.807 263.497L424.179 264.643L425.663 262.131C427.183 262.355 428.72 262.448 430.256 262.41L431.417 265.116L435.905 264.504L436.322 261.629C437.8 261.252 439.247 260.761 440.649 260.162L442.76 262.178L446.673 259.896L445.957 257.058C447.186 256.149 448.331 255.131 449.38 254.019L452.1 255.072L454.845 251.464L453.097 249.139C453.88 247.822 454.548 246.439 455.093 245.007L458.029 244.937ZM425.042 252.484C421.627 251.581 418.556 249.686 416.216 247.039C413.876 244.392 412.374 241.111 411.897 237.61C411.42 234.11 411.992 230.547 413.539 227.37C415.085 224.194 417.538 221.547 420.588 219.764C423.638 217.981 427.148 217.141 430.674 217.351C434.201 217.56 437.587 218.81 440.404 220.942C443.221 223.074 445.343 225.992 446.503 229.329C447.663 232.666 447.808 236.272 446.92 239.692C446.328 241.971 445.292 244.111 443.871 245.988C442.45 247.866 440.672 249.445 438.639 250.633C436.606 251.822 434.359 252.597 432.025 252.915C429.692 253.232 427.319 253.086 425.042 252.484Z" fill="#4EA971"/>
<path opacity="0.3" d="M458.111 330.002L459.108 327.099L457.481 325.974C457.706 324.961 457.849 323.93 457.907 322.893L459.757 322.223L459.58 319.165L457.65 318.73C457.479 317.709 457.219 316.706 456.872 315.731L458.322 314.397L456.987 311.651L455.04 311.994C454.48 311.118 453.85 310.289 453.155 309.516L454.011 307.729L451.72 305.697L450.036 306.771C449.188 306.175 448.293 305.65 447.359 305.201L447.462 303.233L444.573 302.226L443.436 303.851C442.425 303.628 441.396 303.494 440.362 303.451L439.699 301.566L436.636 301.767L436.2 303.697C435.179 303.872 434.175 304.136 433.199 304.486L431.88 302.966L429.135 304.301L429.477 306.248C428.606 306.81 427.781 307.441 427.011 308.135L425.222 307.292L423.201 309.585L424.266 311.255C423.665 312.104 423.138 313.003 422.694 313.943L420.716 313.826L419.733 316.72L421.344 317.866C421.117 318.872 420.98 319.896 420.934 320.926L419.061 321.591L419.25 324.652L421.191 325.09C421.37 326.107 421.635 327.107 421.983 328.079L420.463 329.398L421.799 332.144L423.772 331.795C424.326 332.672 424.957 333.497 425.659 334.261L424.819 336.088L427.112 338.109L428.78 337.055C429.63 337.642 430.527 338.159 431.461 338.602L431.368 340.585L434.259 341.579L435.382 339.963C436.411 340.194 437.456 340.34 438.509 340.4L439.174 342.273L442.223 342.082L442.659 340.152C443.682 339.97 444.69 339.707 445.671 339.365L446.967 340.88L449.715 339.533L449.361 337.583C450.24 337.024 451.073 336.394 451.851 335.701L453.628 336.542L455.661 334.252L454.593 332.593C455.178 331.742 455.695 330.845 456.14 329.912L458.111 330.002ZM443.409 325.462C442.714 326.251 441.8 326.816 440.783 327.086C439.767 327.356 438.693 327.318 437.698 326.977C436.703 326.637 435.831 326.009 435.193 325.173C434.555 324.337 434.18 323.33 434.114 322.28C434.048 321.231 434.295 320.185 434.824 319.276C435.352 318.367 436.139 317.635 437.083 317.172C438.028 316.71 439.089 316.539 440.131 316.679C441.173 316.82 442.15 317.267 442.939 317.963C443.992 318.897 444.633 320.21 444.721 321.615C444.809 323.02 444.337 324.403 443.409 325.462Z" fill="#4EA971"/>
<path d="M485.934 283.451L482.987 280.269C482.925 278.946 482.73 277.633 482.405 276.349L484.076 273.061L480.269 266.544L476.633 266.407C475.676 265.499 474.631 264.686 473.515 263.98L472.183 259.867L464.878 257.962L461.695 260.909C460.372 260.966 459.058 261.161 457.776 261.491L454.49 259.808L447.97 263.628L447.833 267.263C446.916 268.213 446.103 269.259 445.406 270.381L441.305 271.716L439.387 279.018L442.335 282.2C442.39 283.531 442.583 284.852 442.911 286.143L441.24 289.432L445.048 295.949L448.681 296.097C449.639 297.004 450.683 297.817 451.799 298.524L453.122 302.623L460.436 304.542L463.607 301.592C464.941 301.535 466.266 301.343 467.561 301.018L470.85 302.689L477.368 298.882L477.515 295.249C478.426 294.293 479.239 293.248 479.942 292.131L484.044 290.796L485.934 283.451ZM460.468 289.458C458.845 289.033 457.383 288.135 456.27 286.879C455.156 285.623 454.44 284.065 454.212 282.402C453.984 280.739 454.254 279.046 454.988 277.536C455.723 276.027 456.888 274.769 458.337 273.922C459.787 273.075 461.454 272.676 463.13 272.777C464.806 272.878 466.414 273.474 467.751 274.488C469.088 275.503 470.094 276.892 470.642 278.478C471.19 280.065 471.255 281.779 470.829 283.402C470.256 285.577 468.843 287.436 466.901 288.571C464.958 289.707 462.645 290.026 460.468 289.458Z" fill="white"/>
<path d="M501.474 218.077L502.407 216.76C502.871 216.621 503.32 216.441 503.751 216.22L505.1 216.525L507.206 214.556L506.975 213.197C507.265 212.826 507.518 212.429 507.732 212.011L509.136 211.204L509.264 208.361L507.936 207.426C507.799 206.962 507.619 206.512 507.396 206.082L507.701 204.733L505.79 202.64L504.416 202.88C503.994 202.615 503.542 202.398 503.071 202.234L502.264 200.83L499.433 200.704L498.486 202.03C498.004 202.156 497.535 202.329 497.087 202.545L495.749 202.243L493.643 204.212L493.874 205.571C493.614 205.997 493.397 206.447 493.228 206.916L491.821 207.735L491.695 210.566L493.024 211.502C493.152 211.966 493.329 212.416 493.552 212.843L493.25 214.18L495.219 216.286L496.578 216.055C497.01 216.312 497.465 216.525 497.938 216.692L498.745 218.096L501.474 218.077ZM497.362 209.23C497.389 208.599 497.602 207.989 497.976 207.479C498.349 206.97 498.865 206.582 499.459 206.365C500.053 206.149 500.698 206.113 501.312 206.264C501.926 206.414 502.482 206.743 502.909 207.209C503.336 207.675 503.615 208.257 503.711 208.882C503.807 209.506 503.715 210.145 503.448 210.718C503.18 211.291 502.749 211.771 502.208 212.099C501.668 212.426 501.042 212.586 500.411 212.558C499.566 212.517 498.772 212.145 498.201 211.521C497.63 210.898 497.329 210.075 497.362 209.23Z" fill="#4EA971"/>
<path d="M471.366 203.193L470.641 202.235C473.097 200.289 475.914 198.848 478.93 197.997L479.246 199.143C476.377 199.958 473.698 201.334 471.366 203.193Z" fill="#4EA971"/>
<path d="M482.139 198.656L481.927 197.484C486.642 196.588 491.507 196.895 496.071 198.38L495.692 199.516C491.32 198.087 486.656 197.791 482.139 198.656Z" fill="#4EA971"/>
<path d="M478.123 206.218L477.317 205.352C480.972 202.201 485.645 200.482 490.47 200.512L490.429 201.725C485.92 201.693 481.551 203.289 478.123 206.218Z" fill="#4EA971"/>
<path d="M398.658 313.054C398.5 313.014 398.365 312.913 398.281 312.774L396.418 309.714C395.204 309.322 394.029 308.82 392.908 308.213L388.727 309.029C388.633 309.056 388.534 309.059 388.438 309.037C388.343 309.015 388.254 308.97 388.181 308.906L382.762 303.247C382.692 303.174 382.642 303.084 382.617 302.987C382.592 302.889 382.593 302.786 382.619 302.689L383.553 298.55C382.995 297.401 382.546 296.204 382.21 294.972L379.226 292.978C379.143 292.922 379.075 292.846 379.029 292.757C378.983 292.667 378.96 292.567 378.963 292.467L379.142 284.638C379.144 284.538 379.17 284.439 379.22 284.352C379.269 284.265 379.34 284.192 379.425 284.14L382.486 282.276C382.885 281.066 383.387 279.891 383.987 278.766L383.171 274.586C383.144 274.492 383.141 274.393 383.163 274.297C383.184 274.202 383.229 274.113 383.294 274.04L388.953 268.621C389.025 268.549 389.114 268.497 389.212 268.472C389.311 268.447 389.414 268.449 389.511 268.478L393.637 269.47C394.784 268.908 395.982 268.458 397.215 268.127L399.22 265.146C399.274 265.063 399.348 264.995 399.436 264.949C399.523 264.902 399.621 264.878 399.72 264.88L407.55 265.059C407.65 265.059 407.749 265.086 407.836 265.135C407.923 265.185 407.996 265.256 408.048 265.342L409.911 268.402C411.128 268.796 412.307 269.3 413.433 269.906L417.601 269.087C417.698 269.061 417.799 269.059 417.896 269.081C417.994 269.103 418.084 269.148 418.16 269.213L423.567 274.87C423.635 274.944 423.684 275.034 423.711 275.131C423.738 275.229 423.741 275.331 423.722 275.43L422.717 279.554C423.279 280.702 423.733 281.901 424.072 283.134L427.042 285.136C427.125 285.19 427.193 285.265 427.239 285.352C427.286 285.439 427.309 285.537 427.307 285.636L427.14 293.468C427.137 293.568 427.109 293.665 427.06 293.752C427.01 293.839 426.941 293.912 426.857 293.966L423.782 295.838C423.388 297.047 422.886 298.218 422.284 299.337L423.1 303.517C423.126 303.613 423.129 303.715 423.107 303.812C423.085 303.909 423.039 304 422.974 304.075L417.386 309.449C417.314 309.516 417.226 309.564 417.131 309.589C417.036 309.615 416.936 309.616 416.84 309.595L412.702 308.6C411.555 309.151 410.361 309.601 409.136 309.945L407.131 312.926C407.075 313.011 406.999 313.079 406.909 313.125C406.82 313.172 406.72 313.194 406.619 313.19L398.774 313.081L398.658 313.054ZM393.161 306.926C393.218 306.927 393.273 306.94 393.324 306.963C394.497 307.612 395.733 308.141 397.013 308.541C397.149 308.589 397.265 308.679 397.345 308.799L399.12 311.766L406.292 311.931L408.244 309.023C408.33 308.907 408.452 308.823 408.591 308.784C409.888 308.445 411.146 307.972 412.344 307.37C412.471 307.304 412.619 307.289 412.757 307.329L416.778 308.298L421.951 303.356L421.158 299.291C421.141 299.153 421.172 299.013 421.247 298.895C421.891 297.719 422.419 296.484 422.825 295.207C422.869 295.069 422.961 294.951 423.084 294.874L426.05 293.1L426.215 285.928L423.319 283.979C423.194 283.898 423.104 283.773 423.068 283.629C422.727 282.333 422.253 281.075 421.655 279.876C421.596 279.751 421.58 279.61 421.611 279.475L422.524 275.429L417.582 270.256L413.529 271.052C413.386 271.069 413.243 271.037 413.122 270.96C411.944 270.312 410.704 269.782 409.421 269.379C409.286 269.332 409.169 269.241 409.089 269.121L407.314 266.154L400.139 266.001L398.189 268.958C398.11 269.08 397.99 269.17 397.85 269.212C396.549 269.547 395.287 270.02 394.086 270.622C394.025 270.656 393.959 270.678 393.89 270.685C393.821 270.693 393.751 270.687 393.685 270.666L389.663 269.697L384.479 274.637L385.272 278.702C385.292 278.788 385.292 278.878 385.272 278.965C385.253 279.051 385.214 279.132 385.159 279.202C384.538 280.352 384.028 281.558 383.637 282.805C383.594 282.944 383.502 283.062 383.379 283.138L380.412 284.912L380.259 292.087L383.143 294.034C383.271 294.124 383.362 294.257 383.4 294.409C383.74 295.697 384.211 296.946 384.808 298.136C384.87 298.26 384.886 298.403 384.851 298.537L383.938 302.583L388.88 307.756L392.945 306.963C393.015 306.938 393.088 306.925 393.161 306.926ZM399.721 304.447C396.923 303.813 394.349 302.433 392.273 300.452C390.196 298.472 388.696 295.967 387.93 293.202C387.164 290.437 387.161 287.516 387.923 284.75C388.684 281.984 390.181 279.475 392.254 277.492C394.238 275.588 396.683 274.232 399.348 273.555C402.014 272.879 404.81 272.906 407.461 273.634C410.113 274.362 412.531 275.766 414.478 277.708C416.425 279.651 417.834 282.065 418.568 284.715C419.302 287.365 419.336 290.16 418.666 292.827C417.996 295.495 416.645 297.942 414.746 299.931C412.846 301.919 410.463 303.381 407.83 304.173C405.196 304.964 402.402 305.059 399.721 304.447ZM393.086 278.352C390.988 280.36 389.533 282.945 388.904 285.78C388.275 288.615 388.5 291.573 389.552 294.28C390.604 296.987 392.435 299.321 394.814 300.988C397.192 302.654 400.012 303.578 402.915 303.642C405.819 303.707 408.676 302.909 411.126 301.349C413.576 299.79 415.509 297.539 416.68 294.881C417.85 292.223 418.207 289.278 417.704 286.418C417.201 283.558 415.861 280.911 413.854 278.812C412.525 277.41 410.932 276.286 409.166 275.504C407.4 274.722 405.497 274.297 403.566 274.254C401.635 274.212 399.715 274.552 397.917 275.255C396.118 275.958 394.476 277.011 393.086 278.352Z" fill="white"/>
<path d="M198.627 254.339C200.284 227.639 197.244 179.09 247.44 185.527C301.235 192.405 285.846 255.317 285.846 255.317L198.627 254.339Z" fill="#263238"/>
<path d="M233.267 238.286C245.367 238.286 255.176 228.477 255.176 216.377C255.176 204.278 245.367 194.469 233.267 194.469C221.167 194.469 211.358 204.278 211.358 216.377C211.358 228.477 221.167 238.286 233.267 238.286Z" fill="white"/>
<path d="M236.151 194.514C225.769 192.75 214.695 200.391 213.587 208.138L254.723 211.929C253.269 203.096 244.376 195.921 236.151 194.514Z" fill="#263238"/>
<path d="M250.038 215.82C249.74 221.553 246.617 226.047 243.065 225.856C239.513 225.665 236.867 220.885 237.105 215.128C237.343 209.371 240.526 204.901 244.078 205.092C247.63 205.283 250.324 210.098 250.038 215.82Z" fill="#263238"/>
<path d="M233.267 239.49C228.698 239.49 224.231 238.135 220.433 235.597C216.634 233.059 213.673 229.451 211.924 225.23C210.176 221.009 209.718 216.364 210.61 211.883C211.501 207.402 213.701 203.286 216.932 200.055C220.163 196.824 224.279 194.624 228.76 193.733C233.241 192.842 237.886 193.299 242.107 195.047C246.328 196.796 249.936 199.757 252.474 203.556C255.013 207.354 256.368 211.821 256.368 216.389C256.361 222.514 253.926 228.386 249.595 232.717C245.264 237.048 239.392 239.484 233.267 239.49ZM233.267 195.685C229.169 195.685 225.163 196.9 221.756 199.177C218.349 201.454 215.693 204.69 214.126 208.476C212.558 212.262 212.148 216.428 212.949 220.447C213.749 224.466 215.723 228.158 218.622 231.054C221.52 233.951 225.213 235.923 229.232 236.721C233.252 237.519 237.418 237.107 241.203 235.538C244.988 233.968 248.223 231.311 250.498 227.902C252.773 224.494 253.986 220.487 253.984 216.389C253.977 210.898 251.792 205.634 247.908 201.752C244.024 197.87 238.758 195.688 233.267 195.685Z" fill="#4EA971"/>
<path opacity="0.3" d="M279.731 253.678H279.588C279.511 253.661 279.439 253.629 279.375 253.584C279.311 253.539 279.257 253.481 279.216 253.414C279.175 253.347 279.147 253.273 279.135 253.195C279.124 253.118 279.127 253.039 279.147 252.963C279.147 252.808 282.985 236.645 279.04 220.303C279.002 220.145 279.028 219.978 279.113 219.839C279.198 219.701 279.335 219.602 279.493 219.564C279.651 219.526 279.817 219.552 279.956 219.637C280.095 219.722 280.194 219.859 280.232 220.017C284.249 236.704 280.375 253.082 280.339 253.237C280.304 253.369 280.224 253.485 280.113 253.565C280.002 253.646 279.868 253.685 279.731 253.678Z" fill="white"/>
<path opacity="0.3" d="M276.405 211.34C276.291 211.338 276.179 211.305 276.082 211.244C275.986 211.183 275.908 211.097 275.857 210.994C274.376 207.72 272.477 204.651 270.207 201.864C270.108 201.742 270.062 201.586 270.077 201.429C270.093 201.273 270.169 201.129 270.29 201.029C270.351 200.978 270.421 200.94 270.497 200.917C270.573 200.894 270.652 200.886 270.731 200.894C270.81 200.901 270.886 200.925 270.956 200.962C271.026 201 271.087 201.051 271.137 201.113C273.462 203.98 275.413 207.133 276.942 210.494C276.976 210.564 276.995 210.64 276.999 210.718C277.003 210.796 276.991 210.874 276.965 210.947C276.938 211.021 276.897 211.088 276.844 211.145C276.791 211.202 276.727 211.248 276.656 211.28C276.577 211.317 276.492 211.337 276.405 211.34Z" fill="white"/>
<path d="M86.913 379.59H86.472C84.8913 379.546 83.3929 378.876 82.3065 377.727C81.2201 376.578 80.6346 375.044 80.6789 373.464C80.7231 371.883 81.3935 370.385 82.5425 369.298C83.6915 368.212 85.225 367.626 86.8057 367.671H86.913C90.3579 367.671 98.6423 363.487 115.974 336.167C116.434 335.441 117.046 334.824 117.767 334.357C118.488 333.889 119.301 333.584 120.151 333.46C121.002 333.337 121.868 333.399 122.693 333.642C123.517 333.885 124.279 334.303 124.926 334.868C138.537 346.568 153.381 356.752 169.197 365.239C169.929 365.572 170.586 366.049 171.128 366.643C171.671 367.236 172.088 367.933 172.354 368.692C172.62 369.451 172.729 370.256 172.676 371.058C172.623 371.86 172.408 372.643 172.044 373.36C171.681 374.078 171.176 374.714 170.56 375.23C169.944 375.747 169.229 376.134 168.46 376.367C167.691 376.601 166.882 376.676 166.083 376.589C165.283 376.502 164.51 376.254 163.809 375.86C149.11 368.049 135.216 358.81 122.327 348.277C107.797 370.15 97.0212 379.59 86.913 379.59Z" fill="#263238"/>
<path d="M123.794 333.797H123.281C122.344 333.661 121.5 333.16 120.932 332.402C120.365 331.645 120.121 330.693 120.253 329.756C121.1 323.796 120.051 301.59 112.529 284.306C112.196 283.543 112.139 282.686 112.37 281.885C112.601 281.084 113.104 280.389 113.793 279.92C130.123 268.799 164.906 267.464 166.384 267.416C166.853 267.4 167.321 267.477 167.761 267.643C168.201 267.808 168.604 268.058 168.947 268.379C169.29 268.7 169.567 269.086 169.761 269.513C169.955 269.941 170.063 270.403 170.079 270.873C170.095 271.342 170.018 271.81 169.852 272.25C169.687 272.69 169.437 273.093 169.116 273.436C168.795 273.779 168.409 274.056 167.982 274.25C167.554 274.444 167.092 274.552 166.622 274.568C166.3 274.568 135.892 275.76 120.277 284.342C126.929 301.554 128.442 322.998 127.334 330.757C127.205 331.604 126.777 332.376 126.128 332.934C125.478 333.492 124.65 333.798 123.794 333.797Z" fill="#263238"/>
<path d="M129.801 329.168C127.417 323.554 116.689 324.186 110.407 329.002C107.046 331.564 102.493 339.3 102.063 342.113C101.92 342.782 101.942 343.475 102.126 344.133C102.31 344.791 102.651 345.395 103.12 345.892C103.589 346.389 104.172 346.765 104.819 346.987C105.465 347.209 106.156 347.271 106.831 347.167C110.944 346.81 116.582 340.838 116.582 340.838C112.827 344.521 117.679 347.12 124.926 341.791C128.883 338.823 132.459 335.45 129.801 329.168Z" fill="#4EA971"/>
<path d="M334.825 255.905C334.77 255.917 334.713 255.917 334.658 255.905C334.582 255.884 334.511 255.848 334.449 255.8C334.387 255.751 334.336 255.691 334.298 255.621C334.26 255.552 334.236 255.476 334.229 255.398C334.221 255.32 334.229 255.241 334.253 255.166C335.838 249.635 337.566 246.262 339.843 244.438C339.486 243.156 339.553 241.793 340.034 240.552C340.589 239.104 341.57 237.857 342.847 236.976C342.5 236.601 342.253 236.144 342.13 235.648C342.007 235.152 342.012 234.633 342.144 234.139C342.575 232.646 343.468 231.328 344.695 230.373C344.252 229.878 344.01 229.236 344.015 228.573C344.015 224.997 350.583 219.609 358.033 218.584C358.191 218.562 358.352 218.603 358.479 218.7C358.606 218.796 358.69 218.938 358.713 219.096C358.735 219.255 358.693 219.415 358.597 219.542C358.501 219.67 358.358 219.754 358.2 219.776C351.12 220.741 345.183 225.867 345.207 228.573C345.205 228.976 345.358 229.365 345.636 229.657C347.24 228.57 349.044 227.813 350.943 227.43C352.842 227.048 354.799 227.047 356.698 227.428C360.357 228.132 361.847 228.906 361.681 230.015C361.347 232.101 353.563 232.542 348.342 231.922C347.407 231.837 346.497 231.574 345.66 231.147C344.536 231.947 343.7 233.089 343.276 234.401C343.174 234.749 343.175 235.118 343.278 235.465C343.382 235.812 343.584 236.122 343.86 236.356C346.077 235.164 349.188 234.735 353.301 235.641C358.701 236.833 358.903 237.489 359.034 237.882C359.076 238.021 359.08 238.169 359.044 238.309C359.008 238.45 358.935 238.578 358.832 238.681C357.699 239.873 349.415 239.312 345.255 238.287C344.753 238.173 344.268 237.992 343.813 237.751C342.581 238.499 341.633 239.635 341.119 240.981C340.774 241.852 340.68 242.801 340.844 243.723C341.057 243.596 341.275 243.48 341.5 243.377C343.967 242.185 346.947 242.4 350.631 243.973C353.015 245.01 354.207 245.94 354.326 246.881C354.331 247.123 354.271 247.361 354.151 247.571C354.031 247.781 353.857 247.955 353.647 248.073C351.823 249.265 345.458 249.098 342.144 247.334C341.382 246.92 340.747 246.306 340.308 245.558C338.365 247.346 336.792 250.529 335.361 255.523C335.318 255.632 335.244 255.725 335.149 255.793C335.054 255.86 334.941 255.899 334.825 255.905ZM341.285 244.783C341.617 245.4 342.123 245.906 342.74 246.238C345.434 247.668 350.726 247.99 352.705 247.191C353.11 247.024 353.17 246.893 353.17 246.893C353.17 246.893 353.11 246.226 350.19 244.974C346.852 243.544 344.23 243.341 342.048 244.354C341.785 244.481 341.53 244.624 341.285 244.783ZM345.267 236.952L345.565 237.036C349.446 237.93 353.441 238.232 357.413 237.93C356.004 237.407 354.553 237.008 353.074 236.738C350.507 236.042 347.792 236.117 345.267 236.952ZM346.769 230.253C347.319 230.451 347.891 230.579 348.473 230.635C354.433 231.338 359.666 230.516 360.393 229.765C360.191 229.586 359.392 229.073 356.436 228.513C353.109 227.85 349.655 228.472 346.769 230.253Z" fill="#263238"/>
<path d="M179.65 377.606C180.437 377.355 180.175 376.592 179.293 376.592H163.153C132.423 373.338 110.956 377.701 124.485 378.726C138.014 379.751 123.531 379.537 113.649 383.279C103.768 387.022 187.136 387.964 194.705 383.279C201.667 378.965 168.756 381.098 179.65 377.606Z" fill="#263238"/>
<path d="M295.203 382.35L154.785 377.689L148.956 241.547L314.775 245.254L295.203 382.35Z" fill="#4EA971"/>
<path d="M198.627 379.728C198.477 379.728 198.332 379.672 198.222 379.57C198.111 379.469 198.043 379.329 198.031 379.179L186.779 242.441C186.769 242.284 186.82 242.129 186.923 242.008C187.025 241.888 187.17 241.813 187.327 241.798C187.484 241.79 187.638 241.843 187.757 241.945C187.876 242.047 187.953 242.19 187.971 242.346L199.283 379.084C199.289 379.162 199.28 379.241 199.256 379.316C199.232 379.391 199.194 379.46 199.143 379.52C199.092 379.58 199.029 379.629 198.959 379.665C198.889 379.7 198.813 379.722 198.735 379.728H198.627Z" fill="#263238"/>
<path d="M295.203 382.35L332.942 376.605L344.826 250.006L314.776 245.25L295.203 382.35Z" fill="#4EA971"/>
<path opacity="0.2" d="M295.203 382.35L332.942 376.605L344.826 250.006L314.776 245.25L295.203 382.35Z" fill="black"/>
<path d="M166.777 351.468L163.32 270.569C163.235 268.571 163.561 266.576 164.277 264.708C164.994 262.841 166.085 261.14 167.485 259.711C168.885 258.282 170.563 257.155 172.416 256.401C174.269 255.646 176.256 255.28 178.256 255.324L283.224 257.708C285.291 257.754 287.324 258.239 289.19 259.129C291.056 260.019 292.712 261.294 294.049 262.871C295.386 264.448 296.374 266.291 296.947 268.277C297.52 270.263 297.665 272.349 297.373 274.395L285.739 355.855C285.235 359.423 283.433 362.679 280.677 365C277.92 367.32 274.404 368.542 270.803 368.43L180.938 365.45C177.249 365.336 173.739 363.832 171.113 361.239C168.487 358.646 166.938 355.156 166.777 351.468Z" fill="#263238"/>
<path d="M178.125 280.141L194.36 280.653L194.229 284.837L184.061 284.515L183.966 287.638L193.394 287.936L193.263 291.941L183.835 291.631L183.715 295.505L194.169 295.839L194.026 300.273L177.493 299.749L178.125 280.141Z" fill="white"/>
<path d="M197.375 300.397L197.995 280.789L208.103 281.111C209.553 281.103 210.995 281.312 212.383 281.731C213.367 282.06 214.208 282.716 214.767 283.59C215.181 284.227 215.46 284.942 215.586 285.69C215.712 286.439 215.682 287.206 215.499 287.943C215.315 288.68 214.982 289.371 214.52 289.974C214.058 290.576 213.476 291.077 212.812 291.445C212.134 291.794 211.406 292.036 210.654 292.16C211.209 292.339 211.734 292.596 212.216 292.923C212.564 293.246 212.875 293.606 213.146 293.996C213.453 294.367 213.724 294.766 213.956 295.188L216.71 300.969L209.868 300.743L206.816 294.652C206.574 294.07 206.217 293.543 205.767 293.102C205.339 292.793 204.829 292.618 204.301 292.602H203.765L203.514 300.552L197.375 300.397ZM203.836 288.93L206.387 289.014C206.929 288.981 207.467 288.905 207.996 288.787C208.395 288.726 208.757 288.518 209.009 288.203C209.267 287.885 209.414 287.492 209.427 287.083C209.449 286.81 209.411 286.536 209.314 286.28C209.217 286.025 209.064 285.794 208.866 285.605C208.201 285.175 207.416 284.97 206.625 285.021L203.955 284.937L203.836 288.93Z" fill="white"/>
<path d="M218.688 301.006L219.308 281.398L229.405 281.72C230.854 281.712 232.296 281.921 233.684 282.34C234.669 282.666 235.512 283.323 236.068 284.2C236.673 285.155 236.957 286.278 236.878 287.406C236.882 288.357 236.628 289.292 236.143 290.11C235.658 290.929 234.961 291.601 234.125 292.055C233.446 292.402 232.719 292.643 231.967 292.77C232.518 292.948 233.04 293.205 233.517 293.533C233.873 293.846 234.19 294.203 234.459 294.594C234.763 294.966 235.035 295.365 235.269 295.786L238.023 301.555L231.181 301.34L228.129 295.249C227.885 294.668 227.529 294.142 227.08 293.7C226.654 293.378 226.136 293.202 225.602 293.199H225.078L224.815 301.161L218.688 301.006ZM225.137 289.54L227.7 289.611C228.242 289.591 228.781 289.519 229.309 289.397C229.706 289.338 230.064 289.128 230.31 288.813C230.578 288.5 230.725 288.103 230.728 287.692C230.754 287.42 230.718 287.146 230.623 286.89C230.528 286.634 230.376 286.403 230.179 286.214C229.515 285.774 228.722 285.568 227.926 285.63L225.268 285.547L225.137 289.54Z" fill="white"/>
<path d="M239.001 291.917C238.908 290.548 239.121 289.177 239.622 287.9C240.123 286.624 240.901 285.474 241.899 284.534C242.897 283.593 244.092 282.886 245.396 282.462C246.7 282.039 248.082 281.909 249.442 282.083C250.815 282.037 252.183 282.268 253.465 282.762C254.747 283.255 255.916 284.001 256.904 284.955C257.786 285.971 258.452 287.155 258.862 288.435C259.272 289.716 259.417 291.067 259.288 292.405C259.298 294.353 258.84 296.274 257.953 298.007C257.15 299.426 255.948 300.578 254.497 301.321C252.786 302.139 250.893 302.5 249.001 302.37C247.115 302.386 245.25 301.979 243.542 301.178C242.088 300.389 240.902 299.186 240.133 297.721C239.231 295.926 238.84 293.919 239.001 291.917ZM245.056 292.131C244.877 293.634 245.218 295.152 246.021 296.434C246.397 296.854 246.854 297.193 247.364 297.433C247.873 297.672 248.426 297.806 248.989 297.827C249.552 297.848 250.113 297.756 250.64 297.555C251.166 297.355 251.647 297.051 252.053 296.661C252.937 295.322 253.355 293.731 253.245 292.131C253.405 290.694 253.055 289.247 252.256 288.043C251.894 287.626 251.447 287.292 250.946 287.064C250.444 286.836 249.898 286.718 249.347 286.72C248.791 286.68 248.233 286.766 247.714 286.972C247.196 287.179 246.732 287.5 246.355 287.911C245.452 289.128 244.994 290.617 245.056 292.131Z" fill="white"/>
<path d="M262.351 302.471L262.971 282.852L273.067 283.173C274.516 283.171 275.958 283.38 277.347 283.793C278.328 284.128 279.167 284.783 279.731 285.653C280.333 286.609 280.616 287.732 280.541 288.859C280.547 289.812 280.294 290.749 279.809 291.57C279.324 292.391 278.625 293.065 277.788 293.52C277.106 293.857 276.38 294.094 275.63 294.223C276.182 294.404 276.704 294.665 277.18 294.998C277.536 295.311 277.852 295.668 278.121 296.059C278.429 296.43 278.7 296.829 278.932 297.251L281.686 303.032L274.843 302.817L271.792 296.714C271.549 296.136 271.192 295.613 270.743 295.177C270.315 294.857 269.799 294.677 269.265 294.664H268.74L268.478 302.626L262.351 302.471ZM268.8 290.993L271.363 291.076C271.905 291.056 272.444 290.984 272.972 290.862C273.367 290.798 273.724 290.59 273.973 290.278C274.255 289.945 274.403 289.521 274.391 289.086C274.416 288.816 274.38 288.543 274.285 288.289C274.19 288.035 274.039 287.806 273.842 287.619C273.177 287.179 272.384 286.973 271.589 287.035L268.931 286.952L268.8 290.993Z" fill="white"/>
<path d="M271.995 335.773C271.771 335.777 271.549 335.734 271.343 335.645C271.138 335.557 270.953 335.426 270.803 335.26L260.599 324.091L249.585 334.152C249.28 334.431 248.876 334.578 248.463 334.56C248.049 334.543 247.66 334.361 247.38 334.056L237.176 322.888L226.162 332.948C225.857 333.227 225.453 333.374 225.04 333.357C224.626 333.339 224.237 333.157 223.957 332.852L213.742 321.684L202.739 331.744C202.579 331.889 202.39 332 202.185 332.07C201.98 332.14 201.763 332.167 201.547 332.149C201.133 332.125 200.745 331.941 200.463 331.637L190.259 320.48L179.257 330.528C178.95 330.808 178.544 330.956 178.129 330.938C177.713 330.92 177.322 330.738 177.04 330.433C176.901 330.282 176.793 330.104 176.723 329.911C176.653 329.718 176.622 329.513 176.632 329.308C176.642 329.103 176.693 328.901 176.781 328.716C176.87 328.531 176.994 328.364 177.147 328.228L189.306 317.107C189.613 316.826 190.018 316.679 190.434 316.697C190.849 316.715 191.241 316.896 191.523 317.202L201.726 328.371L212.728 318.31C213.041 318.036 213.445 317.891 213.861 317.905C214.276 317.927 214.665 318.111 214.945 318.418L225.149 329.586L236.163 319.526C236.313 319.386 236.49 319.278 236.683 319.207C236.876 319.136 237.08 319.104 237.286 319.113C237.491 319.121 237.692 319.171 237.878 319.258C238.064 319.346 238.231 319.469 238.368 319.622L248.572 330.79L259.586 320.73C259.891 320.451 260.295 320.304 260.708 320.321C261.122 320.339 261.511 320.521 261.791 320.825L273.187 333.198C273.39 333.426 273.523 333.708 273.569 334.01C273.615 334.311 273.573 334.62 273.446 334.898C273.32 335.176 273.115 335.412 272.858 335.575C272.6 335.739 272.3 335.824 271.995 335.82V335.773Z" fill="white"/>
<path d="M83.3608 385.271L75.8989 381.707L69.2476 349.321L72.8593 345.352L83.3608 385.271Z" fill="#4EA971"/>
<path d="M83.3609 385.271L93.2664 379.478L84.7794 352.801L72.8594 345.352L83.3609 385.271Z" fill="#4EA971"/>
<path opacity="0.2" d="M83.3609 385.271L93.2664 379.478L84.7794 352.801L72.8594 345.352L83.3609 385.271Z" fill="black"/>
<path d="M245.771 391.134H244.948C243.368 391.092 241.869 390.423 240.781 389.275C239.694 388.127 239.107 386.594 239.149 385.013C239.192 383.433 239.861 381.934 241.009 380.846C242.157 379.759 243.69 379.172 245.27 379.214C254.449 379.512 273.878 373.874 284.988 363.099C285.659 362.441 286.475 361.951 287.372 361.669C306.193 356.019 313.19 367.426 313.477 367.915L303.225 373.982C303.261 374.058 303.305 374.13 303.356 374.196C303.249 374.041 300.579 370.62 292.092 372.718C278.158 385.425 256.773 391.134 245.771 391.134Z" fill="#263238"/>
<path d="M245.044 399.057L223.337 397.698L221.633 357.672L250.801 358.757L245.044 399.057Z" fill="#4EA971"/>
<path d="M245.044 399.043L250.122 393.989L253.268 369.041L250.801 358.742L245.044 399.043Z" fill="#4EA971"/>
<path opacity="0.2" d="M245.044 399.043L250.122 393.989L253.268 369.041L250.801 358.742L245.044 399.043Z" fill="black"/>
<path d="M370.824 383.915C370.045 383.914 369.287 383.659 368.666 383.188C356.269 373.772 339.522 357.048 333.097 340.921C333 340.688 332.932 340.443 332.894 340.194C329.759 321.551 326.767 282.324 326.636 280.667C326.601 280.197 326.659 279.725 326.806 279.278C326.953 278.83 327.187 278.417 327.494 278.06C328.114 277.339 328.996 276.894 329.944 276.823C330.892 276.751 331.83 277.06 332.551 277.68C333.272 278.301 333.717 279.182 333.788 280.13C333.788 280.524 336.852 320.133 339.903 338.62C346.316 354.307 363.743 370.41 373.017 377.491C373.614 377.944 374.054 378.573 374.274 379.289C374.494 380.006 374.483 380.773 374.244 381.483C374.004 382.194 373.547 382.81 372.938 383.247C372.328 383.683 371.597 383.917 370.848 383.915H370.824Z" fill="#263238"/>
<path d="M387.357 385.707C384.591 385.707 381.456 384.456 378.035 381.989C377.267 381.432 376.751 380.593 376.602 379.657C376.452 378.72 376.68 377.762 377.237 376.994C377.793 376.226 378.632 375.71 379.568 375.561C380.505 375.411 381.463 375.639 382.231 376.196C385.187 378.329 386.796 378.58 387.357 378.58C388.305 378.58 389.215 378.956 389.885 379.627C390.556 380.297 390.933 381.207 390.933 382.155C390.933 383.104 390.556 384.013 389.885 384.684C389.215 385.355 388.305 385.731 387.357 385.731V385.707Z" fill="#263238"/>
<path d="M379.036 381.872C382.863 370.513 398.549 372.753 403.961 374.446C408.584 375.788 413.018 377.71 417.156 380.168C420.077 382.075 420.125 385.281 416.227 387.105C411.459 389.346 399.348 387.355 399.348 387.355C405.594 390.085 399.348 394.507 388.37 390.168C384.806 388.762 377.689 386.044 379.036 381.872Z" fill="#4EA971"/>
<path d="M340.964 285.531C339.545 295.186 331.547 302.302 325.039 301.349C318.53 300.395 318.268 291.813 319.687 282.11C321.105 272.408 323.68 265.423 330.188 266.376C336.696 267.33 342.382 275.912 340.964 285.531Z" fill="#263238"/>
<path d="M183.644 247.025C184.184 247.025 184.621 246.588 184.621 246.048C184.621 245.508 184.184 245.07 183.644 245.07C183.104 245.07 182.667 245.508 182.667 246.048C182.667 246.588 183.104 247.025 183.644 247.025Z" fill="#263238"/>
<path d="M193.573 253.087C193.573 253.28 193.516 253.469 193.409 253.63C193.301 253.791 193.149 253.916 192.97 253.99C192.791 254.064 192.595 254.083 192.405 254.045C192.216 254.008 192.041 253.915 191.905 253.778C191.768 253.641 191.675 253.467 191.637 253.277C191.599 253.088 191.619 252.891 191.693 252.713C191.767 252.534 191.892 252.382 192.053 252.274C192.214 252.167 192.403 252.109 192.596 252.109C192.855 252.109 193.104 252.212 193.287 252.396C193.47 252.579 193.573 252.828 193.573 253.087Z" fill="#263238"/>
<path d="M194.67 368.587C194.67 368.78 194.613 368.969 194.505 369.13C194.398 369.291 194.245 369.416 194.067 369.49C193.888 369.564 193.691 369.583 193.502 369.545C193.312 369.508 193.138 369.415 193.001 369.278C192.865 369.141 192.772 368.967 192.734 368.777C192.696 368.588 192.716 368.391 192.789 368.213C192.863 368.034 192.989 367.882 193.149 367.774C193.31 367.667 193.499 367.609 193.693 367.609C193.952 367.609 194.2 367.712 194.384 367.896C194.567 368.079 194.67 368.328 194.67 368.587Z" fill="#263238"/>
<path d="M203.622 375.618C203.622 375.811 203.564 376 203.457 376.161C203.349 376.322 203.197 376.447 203.018 376.521C202.84 376.595 202.643 376.614 202.453 376.577C202.264 376.539 202.09 376.446 201.953 376.309C201.816 376.173 201.723 375.998 201.686 375.809C201.648 375.619 201.667 375.423 201.741 375.244C201.815 375.065 201.94 374.913 202.101 374.805C202.262 374.698 202.451 374.641 202.644 374.641C202.903 374.641 203.152 374.744 203.335 374.927C203.519 375.11 203.622 375.359 203.622 375.618Z" fill="#263238"/>
<path d="M31.8186 387.371C30.1026 387.291 28.4265 386.827 26.9141 386.012C25.4018 385.197 24.0919 384.052 23.0813 382.663C23.0317 382.599 22.9957 382.526 22.9754 382.448C22.9551 382.369 22.9509 382.288 22.9632 382.208C22.9754 382.128 23.0038 382.051 23.0466 381.983C23.0894 381.914 23.1457 381.855 23.2121 381.809C23.2785 381.762 23.3536 381.73 23.4329 381.714C23.5121 381.698 23.5938 381.698 23.673 381.714C23.7522 381.731 23.8272 381.763 23.8936 381.809C23.9599 381.856 24.016 381.915 24.0587 381.984C26.2877 385.202 31.2107 386.907 33.3563 385.893C33.5712 385.802 33.7627 385.664 33.9165 385.488C32.8324 385.011 31.8825 384.274 31.1507 383.343C30.4189 382.412 29.9277 381.314 29.7207 380.148C29.4465 378.634 29.232 376.572 30.4717 376.31C32.1881 375.929 34.4291 380.065 35.2397 383.2C35.3865 383.718 35.439 384.259 35.3946 384.797C36.0821 385.002 36.8053 385.059 37.5164 384.964C37.8368 384.939 38.1486 384.848 38.4318 384.696C38.715 384.544 38.9635 384.335 39.1613 384.082C38.3768 383.49 37.7261 382.739 37.2516 381.878C36.7771 381.018 36.4896 380.067 36.4078 379.087C35.9549 375.821 36.3005 375.261 36.6581 374.975C36.774 374.886 36.9123 374.831 37.0575 374.816C37.2028 374.802 37.3493 374.828 37.4806 374.891C38.7561 375.428 40.2937 380.053 40.5917 382.675C40.6274 382.948 40.6274 383.225 40.5917 383.498C41.1056 383.695 41.6504 383.8 42.2009 383.807C43.2117 383.847 44.2114 383.585 45.0737 383.056C44.9068 382.949 44.7518 382.83 44.5969 382.711C43.4049 381.65 42.8565 379.957 43.0711 377.55C43.238 375.678 43.6552 374.653 44.4061 374.331C44.6484 374.234 44.9137 374.209 45.1698 374.26C45.4258 374.311 45.6616 374.435 45.8485 374.617C46.6531 375.506 47.2544 376.559 47.6106 377.704C47.9667 378.848 48.0691 380.057 47.9106 381.245C47.8071 381.739 47.5999 382.207 47.3027 382.615C49.496 382.997 52.5713 382.377 55.2295 381.721C55.3078 381.703 55.389 381.7 55.4685 381.712C55.548 381.725 55.6242 381.753 55.6928 381.795C55.7615 381.837 55.8211 381.892 55.8684 381.957C55.9157 382.022 55.9497 382.096 55.9685 382.174C55.9873 382.253 55.9905 382.334 55.9779 382.413C55.9653 382.493 55.9372 382.569 55.8951 382.638C55.8531 382.706 55.7979 382.766 55.7328 382.813C55.6676 382.861 55.5938 382.895 55.5156 382.913C52.2853 383.712 48.8046 384.368 46.3491 383.652C45.1505 384.564 43.6827 385.05 42.1771 385.035C41.509 385.026 40.8475 384.901 40.2222 384.666C39.9449 385.094 39.5729 385.454 39.1347 385.716C38.6966 385.979 38.2041 386.137 37.6952 386.179C36.7992 386.295 35.8889 386.217 35.0251 385.953C34.747 386.421 34.3305 386.792 33.8331 387.014C33.1938 387.272 32.5077 387.394 31.8186 387.371ZM30.7935 377.502C30.6286 378.312 30.6613 379.15 30.8889 379.945C31.057 380.899 31.4525 381.797 32.0418 382.565C32.6311 383.333 33.3969 383.947 34.2741 384.356C34.2575 384.073 34.2095 383.793 34.1311 383.521C33.2013 380.112 31.4133 377.764 30.7935 377.502ZM37.4329 376.465C37.4407 377.287 37.5084 378.108 37.6356 378.92C37.767 380.374 38.4089 381.733 39.4474 382.758C39.1541 380.558 38.472 378.427 37.4329 376.465ZM44.9306 375.428C44.9306 375.428 44.4777 375.654 44.3108 377.645C44.1439 379.636 44.4896 381.006 45.4193 381.805C45.6393 381.983 45.8794 382.135 46.1345 382.258C46.448 381.922 46.6697 381.512 46.7782 381.066C46.9905 379.19 46.4837 377.303 45.3597 375.785C45.1094 375.476 44.9664 375.428 44.9306 375.428Z" fill="#263238"/>
<path d="M206.28 396.369L209.51 390.766L206.28 385.164H202.823L204.778 390.766L202.823 396.369H206.28Z" fill="#263238"/>
<path d="M203.05 393.699C202.651 393.724 202.252 393.668 201.876 393.533C201.5 393.398 201.156 393.187 200.865 392.914C200.574 392.641 200.342 392.311 200.183 391.945C200.025 391.579 199.943 391.184 199.943 390.784C199.943 390.385 200.025 389.99 200.183 389.624C200.342 389.258 200.574 388.928 200.865 388.655C201.156 388.381 201.5 388.171 201.876 388.036C202.252 387.901 202.651 387.845 203.05 387.87L197.566 386.773L196.1 391.208L198.556 394.95L203.05 393.699Z" fill="#263238"/>
<path d="M203.526 385.164H197.054L193.823 390.766L197.054 396.369H203.526L206.757 390.766L203.526 385.164ZM200.296 393.687C199.718 393.689 199.152 393.52 198.67 393.2C198.189 392.881 197.812 392.426 197.589 391.892C197.367 391.359 197.307 390.771 197.418 390.204C197.53 389.637 197.807 389.115 198.215 388.706C198.623 388.296 199.143 388.017 199.71 387.903C200.277 387.789 200.865 387.847 201.399 388.067C201.933 388.288 202.39 388.662 202.712 389.143C203.033 389.623 203.205 390.188 203.205 390.766C203.205 391.539 202.898 392.28 202.353 392.827C201.808 393.374 201.069 393.684 200.296 393.687Z" fill="#4EA971"/>
<path d="M431.591 384.797L429.195 380.637L431.591 376.477H434.154L432.712 380.637L434.154 384.797H431.591Z" fill="#4EA971"/>
<path d="M433.987 382.801C434.285 382.824 434.584 382.784 434.866 382.685C435.147 382.587 435.405 382.431 435.624 382.228C435.843 382.025 436.017 381.779 436.137 381.505C436.256 381.232 436.317 380.936 436.317 380.638C436.317 380.34 436.256 380.044 436.137 379.771C436.017 379.497 435.843 379.251 435.624 379.048C435.405 378.845 435.147 378.689 434.866 378.591C434.584 378.492 434.285 378.452 433.987 378.475L438.064 377.664L439.149 380.954L437.337 383.731L433.987 382.801Z" fill="#4EA971"/>
<path d="M433.642 376.477H438.41L440.794 380.637L438.41 384.797H433.642L431.258 380.637L433.642 376.477ZM436.026 382.806C436.455 382.808 436.876 382.683 437.234 382.446C437.593 382.209 437.873 381.871 438.039 381.475C438.205 381.079 438.249 380.642 438.167 380.221C438.085 379.799 437.879 379.411 437.576 379.107C437.273 378.802 436.887 378.594 436.465 378.51C436.044 378.425 435.607 378.467 435.21 378.631C434.813 378.795 434.474 379.073 434.235 379.43C433.996 379.787 433.868 380.207 433.868 380.637C433.867 380.922 433.922 381.205 434.03 381.469C434.139 381.733 434.298 381.972 434.5 382.174C434.702 382.376 434.942 382.536 435.206 382.644C435.47 382.752 435.752 382.808 436.038 382.806H436.026Z" fill="#263238"/>
<path d="M342.322 390.344H347.71C348.385 390.341 349.03 390.071 349.506 389.593C349.982 389.114 350.249 388.467 350.249 387.793C350.249 387.119 349.982 386.472 349.506 385.993C349.03 385.515 348.385 385.245 347.71 385.242H342.322C341.646 385.242 340.997 385.511 340.519 385.989C340.04 386.468 339.771 387.117 339.771 387.793C339.771 388.47 340.04 389.118 340.519 389.597C340.997 390.075 341.646 390.344 342.322 390.344Z" fill="#263238"/>
<path d="M333.657 385.528C334.157 384.619 334.912 383.876 335.829 383.391C336.746 382.905 337.786 382.699 338.819 382.797C339.852 382.896 340.834 383.294 341.643 383.944C342.452 384.593 343.054 385.465 343.373 386.453C343.693 387.44 343.716 388.499 343.441 389.5C343.166 390.5 342.604 391.399 341.824 392.083C341.044 392.768 340.081 393.21 339.054 393.354C338.026 393.498 336.979 393.339 336.041 392.895C334.752 392.23 333.778 391.083 333.331 389.703C332.884 388.323 333.001 386.822 333.657 385.528Z" fill="#4EA971"/>
<path d="M335.111 392.89L336.588 393.586L341.721 382.696L340.244 382L335.111 392.89Z" fill="#263238"/>
</g>
<defs>
<clipPath id="clip0_17109_175019">
<rect width="517" height="430" fill="white"/>
</clipPath>
</defs>
</svg>
